<svg width="32" height="32" viewBox="0 0 32 32" fill="none" xmlns="http://www.w3.org/2000/svg">
<rect width="32" height="32" rx="6" fill="#7C3AED"/>
<path d="M10.524 23.192C9.66 23.192 8.85467 23.0373 8.108 22.728C7.372 22.4187 6.72133 21.9867 6.156 21.432C5.60133 20.8773 5.164 20.2267 4.844 19.48C4.53467 18.7333 4.38 17.9173 4.38 17.032C4.38 16.1467 4.53467 15.3307 4.844 14.584C5.164 13.8267 5.60133 13.176 6.156 12.632C6.71067 12.0773 7.36133 11.6507 8.108 11.352C8.85467 11.0427 9.66 10.888 10.524 10.888C11.3987 10.888 12.204 11.0427 12.94 11.352C13.6867 11.6507 14.3373 12.0773 14.892 12.632C15.4573 13.1867 15.8947 13.8373 16.204 14.584C16.5133 15.3307 16.668 16.1467 16.668 17.032C16.668 17.9173 16.508 18.7333 16.188 19.48C15.8787 20.2267 15.4467 20.8773 14.892 21.432C14.3373 21.9867 13.6867 22.4187 12.94 22.728C12.1933 23.0373 11.388 23.192 10.524 23.192ZM10.524 21.464C11.1427 21.464 11.708 21.352 12.22 21.128C12.7427 20.904 13.196 20.5947 13.58 20.2C13.964 19.7947 14.2627 19.3253 14.476 18.792C14.6893 18.248 14.796 17.6613 14.796 17.032C14.796 16.4027 14.6893 15.8213 14.476 15.288C14.2627 14.7547 13.964 14.2853 13.58 13.88C13.196 13.4747 12.7427 13.16 12.22 12.936C11.708 12.712 11.1427 12.6 10.524 12.6C9.90533 12.6 9.33467 12.712 8.812 12.936C8.3 13.16 7.852 13.4747 7.468 13.88C7.084 14.2853 6.78533 14.7547 6.572 15.288C6.36933 15.8213 6.268 16.4027 6.268 17.032C6.268 17.6613 6.36933 18.248 6.572 18.792C6.78533 19.3253 7.084 19.7947 7.468 20.2C7.852 20.5947 8.30533 20.904 8.828 21.128C9.35067 21.352 9.916 21.464 10.524 21.464ZM17.7789 23V11.08H22.8029C23.5495 11.08 24.1949 11.2133 24.7389 11.48C25.2829 11.736 25.6989 12.1093 25.9869 12.6C26.2749 13.08 26.4189 13.6507 26.4189 14.312C26.4189 14.888 26.2695 15.416 25.9709 15.896C25.6829 16.3653 25.2295 16.7387 24.6109 17.016V16.216C25.1549 16.4293 25.5975 16.7013 25.9389 17.032C26.2802 17.352 26.5255 17.7147 26.6749 18.12C26.8349 18.5253 26.9149 18.952 26.9149 19.4C26.9149 20.52 26.5469 21.4 25.8109 22.04C25.0855 22.68 24.0882 23 22.8189 23H17.7789ZM19.6669 21.32H22.9629C23.5922 21.32 24.0935 21.1493 24.4669 20.808C24.8402 20.456 25.0269 19.992 25.0269 19.416C25.0269 18.8293 24.8402 18.3653 24.4669 18.024C24.0935 17.672 23.5922 17.496 22.9629 17.496H19.6669V21.32ZM19.6669 15.832H22.8509C23.3629 15.832 23.7735 15.688 24.0829 15.4C24.3922 15.1013 24.5469 14.712 24.5469 14.232C24.5469 13.752 24.3922 13.3787 24.0829 13.112C23.7735 12.8453 23.3629 12.712 22.8509 12.712H19.6669V15.832Z" fill="white"/>
</svg>
